<mxfile host="app.diagrams.net" modified="2023-03-06T21:19:54.889Z" agent="5.0 (Macintosh; Intel Mac OS X 10_15_7) AppleWebKit/605.1.15 (KHTML, like Gecko) Version/15.6.1 Safari/605.1.15" etag="fP3hDSW5rzexsFpXJnOY" version="21.0.2" type="github">
  <diagram name="Page-1" id="N4xFb5tkxuh82r5F6LsM">
    <mxGraphModel dx="689" dy="436" grid="1" gridSize="10" guides="1" tooltips="1" connect="1" arrows="1" fold="1" page="1" pageScale="1" pageWidth="827" pageHeight="1169" math="0" shadow="0">
      <root>
        <mxCell id="0" />
        <mxCell id="1" parent="0" />
        <mxCell id="l74dsTWbILAlDg7j7ZPJ-1" value="" style="whiteSpace=wrap;html=1;aspect=fixed;" parent="1" vertex="1">
          <mxGeometry x="70" y="120" width="250" height="250" as="geometry" />
        </mxCell>
        <mxCell id="l74dsTWbILAlDg7j7ZPJ-2" value="" style="whiteSpace=wrap;html=1;aspect=fixed;" parent="1" vertex="1">
          <mxGeometry x="470" y="40" width="210" height="210" as="geometry" />
        </mxCell>
        <mxCell id="l74dsTWbILAlDg7j7ZPJ-3" value="" style="whiteSpace=wrap;html=1;aspect=fixed;" parent="1" vertex="1">
          <mxGeometry x="470" y="270" width="210" height="210" as="geometry" />
        </mxCell>
        <mxCell id="l74dsTWbILAlDg7j7ZPJ-4" value="BOOK" style="rounded=0;whiteSpace=wrap;html=1;" parent="1" vertex="1">
          <mxGeometry x="70" y="80" width="250" height="40" as="geometry" />
        </mxCell>
        <mxCell id="l74dsTWbILAlDg7j7ZPJ-7" value="Colour : string&lt;br&gt;Title : string&lt;br&gt;Content : string&lt;br&gt;Cover : string&lt;br&gt;Pages : string&lt;br&gt;author : Author&lt;br&gt;publisher : Publisher" style="rounded=0;whiteSpace=wrap;html=1;align=left;" parent="1" vertex="1">
          <mxGeometry x="70" y="120" width="250" height="160" as="geometry" />
        </mxCell>
        <mxCell id="l74dsTWbILAlDg7j7ZPJ-8" value="open()&lt;br&gt;read()" style="rounded=0;whiteSpace=wrap;html=1;align=left;" parent="1" vertex="1">
          <mxGeometry x="70" y="280" width="250" height="90" as="geometry" />
        </mxCell>
        <mxCell id="l74dsTWbILAlDg7j7ZPJ-9" value="AUTHOR" style="rounded=0;whiteSpace=wrap;html=1;" parent="1" vertex="1">
          <mxGeometry x="470" y="40" width="210" height="40" as="geometry" />
        </mxCell>
        <mxCell id="l74dsTWbILAlDg7j7ZPJ-19" style="edgeStyle=orthogonalEdgeStyle;rounded=0;orthogonalLoop=1;jettySize=auto;html=1;exitX=0;exitY=0.5;exitDx=0;exitDy=0;entryX=1;entryY=0.25;entryDx=0;entryDy=0;" parent="1" source="l74dsTWbILAlDg7j7ZPJ-10" target="l74dsTWbILAlDg7j7ZPJ-7" edge="1">
          <mxGeometry relative="1" as="geometry" />
        </mxCell>
        <mxCell id="l74dsTWbILAlDg7j7ZPJ-10" value="&lt;div style=&quot;&quot;&gt;&lt;div style=&quot;&quot;&gt;&lt;div style=&quot;&quot;&gt;Search_engine:string&lt;/div&gt;&lt;/div&gt;&lt;/div&gt;Library: string&lt;br&gt;create_content: string" style="rounded=0;whiteSpace=wrap;html=1;align=left;" parent="1" vertex="1">
          <mxGeometry x="470" y="80" width="210" height="100" as="geometry" />
        </mxCell>
        <mxCell id="l74dsTWbILAlDg7j7ZPJ-14" value="research()&lt;br&gt;write()" style="rounded=0;whiteSpace=wrap;html=1;align=left;" parent="1" vertex="1">
          <mxGeometry x="470" y="180" width="210" height="70" as="geometry" />
        </mxCell>
        <mxCell id="l74dsTWbILAlDg7j7ZPJ-18" style="edgeStyle=orthogonalEdgeStyle;rounded=0;orthogonalLoop=1;jettySize=auto;html=1;exitX=0;exitY=0.5;exitDx=0;exitDy=0;entryX=1.016;entryY=0.688;entryDx=0;entryDy=0;entryPerimeter=0;" parent="1" source="l74dsTWbILAlDg7j7ZPJ-15" target="l74dsTWbILAlDg7j7ZPJ-7" edge="1">
          <mxGeometry relative="1" as="geometry" />
        </mxCell>
        <mxCell id="l74dsTWbILAlDg7j7ZPJ-15" value="PUBLISHER" style="rounded=0;whiteSpace=wrap;html=1;" parent="1" vertex="1">
          <mxGeometry x="470" y="270" width="210" height="40" as="geometry" />
        </mxCell>
        <mxCell id="l74dsTWbILAlDg7j7ZPJ-16" value="Printing_house : string&lt;br&gt;Copy_edit : string&lt;br&gt;Marketing : string" style="rounded=0;whiteSpace=wrap;html=1;align=left;" parent="1" vertex="1">
          <mxGeometry x="470" y="310" width="210" height="100" as="geometry" />
        </mxCell>
        <mxCell id="l74dsTWbILAlDg7j7ZPJ-17" value="print()&lt;br&gt;publish()&lt;br&gt;promote()" style="rounded=0;whiteSpace=wrap;html=1;align=left;" parent="1" vertex="1">
          <mxGeometry x="470" y="410" width="210" height="70" as="geometry" />
        </mxCell>
      </root>
    </mxGraphModel>
  </diagram>
</mxfile>
